<svg xmlns="http://www.w3.org/2000/svg" xmlns:xlink="http://www.w3.org/1999/xlink" width="500" zoomAndPan="magnify" viewBox="0 0 375 374.999991" height="500" preserveAspectRatio="xMidYMid meet" version="1.0"><defs><g/><clipPath id="73d0b05a0e"><path d="M 92.113281 90.816406 L 279.613281 90.816406 L 279.613281 278 L 92.113281 278 Z M 92.113281 90.816406 " clip-rule="nonzero"/></clipPath></defs><g clip-path="url(#73d0b05a0e)"><path fill="#fffef9" d="M 185.699219 277.988281 C 133.996094 277.988281 92.113281 235.816406 92.113281 184.402344 C 92.113281 132.988281 133.996094 90.816406 185.699219 90.816406 C 237.402344 90.816406 279.285156 132.699219 279.285156 184.402344 C 279.285156 236.105469 237.113281 277.988281 185.699219 277.988281 Z M 185.699219 96.59375 C 137.175781 96.59375 97.890625 135.875 97.890625 184.402344 C 97.890625 232.929688 137.175781 272.210938 185.699219 272.210938 C 234.226562 272.210938 273.507812 232.929688 273.507812 184.402344 C 273.507812 135.875 233.9375 96.59375 185.699219 96.59375 Z M 185.699219 96.59375 " fill-opacity="1" fill-rule="nonzero"/></g><path stroke-linecap="butt" transform="matrix(1.465975, 0, 0, 1.465975, 69.32406, 91.156364)" fill="none" stroke-linejoin="miter" d="M 37.41654 65.125617 C 37.8562 65.019032 38.088021 64.925771 38.114667 64.845833 C 38.141313 64.752571 38.346488 64.574043 38.732856 64.307582 C 38.999317 64.08109 39.199163 63.902561 39.332393 63.769331 C 39.478947 63.6361 39.657476 63.489547 39.870644 63.32967 L 47.230293 58.261585 C 47.82983 57.877882 48.50664 57.496843 49.266054 57.126462 C 50.022802 56.740094 50.814191 56.545577 51.64022 56.545577 C 52.290384 56.545577 52.889921 56.705454 53.436166 57.025207 C 54.139622 57.464867 54.584612 58.09638 54.771135 58.919744 C 54.97098 59.732449 55.058912 60.537161 55.032266 61.333879 C 55.00562 62.119938 54.992297 62.75678 54.992297 63.249732 C 56.082122 62.426368 57.211916 61.515072 58.381679 60.515844 C 59.551442 59.505957 60.569322 58.509394 61.43532 57.523489 L 66.183652 53.196165 C 66.67394 52.863089 66.999023 52.697883 67.158899 52.697883 C 67.318776 52.697883 67.646522 52.863089 68.13681 53.196165 C 68.083518 53.739745 68.016903 54.067492 67.936965 54.174076 C 67.857027 54.28066 67.651852 54.525804 67.318776 54.912172 C 66.615319 55.775506 65.677377 56.740094 64.507614 57.803273 C 63.335186 58.866451 62.1521 59.918972 60.955691 60.955504 C 59.759282 61.992037 58.722749 62.916656 57.843428 63.729362 C 57.576967 64.006481 57.385115 64.187674 57.265208 64.267613 C 57.158624 64.347551 56.972101 64.494104 56.70564 64.704608 C 55.669108 65.583929 54.957657 66.228764 54.571289 66.641779 C 54.200908 67.038805 53.9531 67.44649 53.833192 67.85684 C 53.726608 68.269854 53.561402 68.896037 53.334911 69.732725 C 53.121742 70.585399 52.636783 71.880399 51.880034 73.623053 C 50.894129 75.855995 49.857597 77.913072 48.767772 79.786292 C 47.688605 81.662176 46.518842 83.556713 45.255818 85.472566 C 45.042649 85.739027 44.86412 85.965519 44.717567 86.152042 C 44.584337 86.349223 44.384491 86.583708 44.11803 86.850169 L 41.266899 90.697864 C 40.667362 91.350693 39.809358 92.261989 38.692887 93.431752 C 37.576416 94.601515 36.35869 95.659365 35.042374 96.602636 C 33.73938 97.561895 32.516325 98.041524 31.370543 98.041524 C 31.160039 98.041524 30.965523 98.028201 30.792323 98.001555 C 30.632447 97.974909 30.475235 97.93494 30.315358 97.881648 C 29.48933 97.561895 28.985719 96.989004 28.799196 96.16564 C 28.612674 95.352935 28.612674 94.481608 28.799196 93.551659 C 28.985719 92.635034 29.21754 91.816999 29.497324 91.097555 C 30.254072 89.528101 31.026809 88.073224 31.810204 86.730262 C 32.609586 85.400622 33.579504 84.049666 34.722621 82.680057 C 35.055697 82.200427 35.367456 81.755438 35.660563 81.342423 C 35.966993 80.932074 36.305398 80.47909 36.678443 79.986138 C 36.958227 79.826261 37.176725 79.661056 37.336602 79.487856 C 37.496478 79.327979 37.68833 79.114811 37.914822 78.84835 C 38.951354 77.598649 40.254348 76.250357 41.823802 74.80081 C 43.40658 73.364586 44.770859 72.048269 45.913976 70.849195 L 50.902123 66.681748 C 51.341784 66.188795 51.653543 65.464022 51.840065 64.507427 C 52.026588 63.548168 52.130508 62.58358 52.157154 61.613663 C 52.1838 60.630422 52.093203 59.892326 51.880034 59.399373 C 50.840837 59.399373 49.857597 59.65784 48.927648 60.177439 C 48.008358 60.697037 47.224963 61.174002 46.572134 61.613663 C 45.322433 62.373076 44.2859 63.036564 43.459872 63.609454 C 42.649831 64.179681 41.858442 64.765894 41.085706 65.365431 C 40.328957 65.962304 39.377692 66.727046 38.234575 67.656995 C 37.848206 67.923455 37.251334 68.384433 36.438629 69.034597 C 35.628588 69.700749 34.890491 70.031161 34.224339 70.031161 C 33.957878 70.031161 33.744709 69.945893 33.584833 69.772694 C 33.147837 69.333033 33.113197 68.621583 33.486242 67.638342 C 33.872611 66.668425 34.376222 65.695843 35.002405 64.725925 C 35.628588 63.742685 36.05226 63.05788 36.278752 62.671512 L 41.983679 53.196165 C 42.529923 52.210259 43.12946 51.067142 43.779625 49.764149 C 44.445777 48.447832 45.016003 47.136845 45.495633 45.833852 C 45.988585 44.530858 46.233729 43.387741 46.233729 42.4045 C 45.527608 42.50842 44.736219 42.881465 43.859563 43.520971 C 42.99623 44.14449 42.343401 44.696064 41.90374 45.175693 C 41.53336 45.508769 41.205613 45.77523 40.928494 45.975076 C 40.662033 46.158934 40.334286 46.438718 39.950582 46.811763 C 39.630829 47.198131 39.359039 47.531207 39.132548 47.808326 C 38.919379 48.074787 38.620943 48.399869 38.234575 48.786238 C 36.651797 50.355692 35.601942 51.632039 35.082343 52.617945 C 34.562744 53.601185 34.250985 54.339282 34.144401 54.832234 C 34.037816 55.322522 33.832642 55.650269 33.526212 55.807481 C 33.233105 55.967357 32.516325 56.047296 31.370543 56.047296 C 30.880255 55.237255 30.659093 54.55778 30.712385 54.014199 C 30.765677 53.467955 31.093424 52.841772 31.690296 52.138315 C 32.289833 51.418871 33.107868 50.462276 34.144401 49.265867 C 34.530769 48.826207 35.194256 48.136073 36.140192 47.190137 C 37.096787 46.233543 38.199935 45.223656 39.452301 44.157813 C 40.715325 43.094634 41.970356 42.183338 43.220057 41.426589 C 44.472423 40.667176 45.535602 40.288801 46.412258 40.288801 C 47.331548 40.288801 47.92842 40.720468 48.208204 41.586466 C 48.421373 42.40983 48.376074 43.406393 48.069644 44.578821 C 47.776537 45.748584 47.344871 46.971639 46.77198 48.247987 C 46.199089 49.524334 45.628863 50.680774 45.055972 51.719972 C 44.485746 52.756504 44.038092 53.574539 43.721003 54.174076 C 43.547804 54.504487 43.13479 55.202615 42.48196 56.268458 C 41.831796 57.318314 41.120346 58.488077 40.347609 59.777747 C 39.59086 61.054095 38.924708 62.2132 38.354482 63.249732 C 37.781591 64.272942 37.469832 64.899125 37.41654 65.125617 Z M 30.872262 95.187729 C 30.872262 95.627389 31.066778 95.845887 31.450482 95.845887 C 32.156603 95.845887 33.054576 95.392904 34.144401 94.489601 C 35.234226 93.599622 36.353361 92.520456 37.496478 91.257431 C 38.639595 90.00773 39.657476 88.811321 40.547455 87.668204 C 41.453422 86.522422 42.071611 85.704387 42.404687 85.214099 C 42.894975 84.454686 43.534481 83.436806 44.317876 82.160458 C 45.117258 80.884111 45.908647 79.519831 46.692042 78.070284 C 47.478101 76.620737 48.194881 75.219153 48.84771 73.862868 C 49.511198 72.506582 49.950858 71.3608 50.164027 70.430852 C 49.724366 70.763928 49.127494 71.243557 48.368081 71.867076 C 47.611332 72.493259 46.859912 73.1301 46.113822 73.782929 C 45.383719 74.433094 44.770859 74.979339 44.277907 75.418999 C 43.294666 76.22904 42.396693 77.11369 41.586652 78.070284 C 40.773946 79.029543 39.90262 79.994132 38.972671 80.964049 L 36.518567 83.996373 C 35.812446 84.926322 35.023721 86.032134 34.144401 87.308482 C 33.281068 88.584829 32.516325 89.901146 31.850173 91.257431 C 31.200008 92.62704 30.872262 93.938027 30.872262 95.187729 Z M 63.881431 60.217408 L 64.379713 50.981875 C 64.433005 50.382338 64.486297 49.665558 64.539589 48.826207 C 64.592881 47.976197 64.646173 47.251423 64.699466 46.651886 C 64.819373 43.925992 65.165772 41.232073 65.735998 38.572794 C 66.308889 35.900191 66.919084 33.254235 67.571913 30.63226 C 67.944959 29.542436 68.238066 28.825656 68.44857 28.479257 C 68.675061 28.119535 68.981491 27.941006 69.36786 27.941006 C 69.527736 27.941006 69.714259 27.954329 69.924763 27.980975 C 70.151254 28.007621 70.399063 28.04759 70.662859 28.100882 C 70.942643 29.363907 70.889351 30.853423 70.505647 32.569431 C 70.132602 34.282774 69.831501 35.846899 69.607674 37.256477 C 69.008137 41.018904 68.515185 45.16237 68.131481 49.684211 C 67.758436 54.206051 67.571913 58.509394 67.571913 62.591574 L 67.811728 71.747168 L 68.469886 70.191037 C 69.226635 68.011387 69.866141 66.175472 70.38574 64.685956 C 70.902674 63.183117 71.502211 61.693601 72.179021 60.217408 C 72.858497 58.741215 73.769793 56.945269 74.91291 54.832234 C 75.512447 53.739745 76.095996 52.815126 76.668887 52.058377 C 77.239113 51.288305 78.131757 50.901937 79.341489 50.901937 C 79.941026 50.901937 80.359369 51.338933 80.599184 52.218253 C 80.838999 53.081586 80.982888 54.032852 81.03618 55.069384 C 81.102795 56.108582 81.137435 56.873324 81.137435 57.363612 C 81.137435 58.879774 81.177404 60.172109 81.257342 61.235288 C 81.337281 62.298467 81.64904 63.348323 82.195284 64.38752 C 83.444986 64.107736 84.502835 63.303024 85.366169 61.973385 C 86.242825 60.643745 87.034213 59.487305 87.740335 58.5014 C 88.126703 57.904528 88.478431 57.304991 88.798184 56.705454 C 89.128596 56.108582 89.461672 55.482399 89.794748 54.832234 C 90.2877 53.952913 90.679398 53.356041 90.972505 53.036288 C 91.278935 52.703212 91.590694 52.538006 91.910447 52.538006 C 92.080982 52.538006 92.382083 52.591298 92.805755 52.697883 C 93.085539 53.681123 93.032247 54.472512 92.648543 55.069384 C 92.275498 55.668921 91.870478 56.375042 91.430817 57.185083 C 91.044449 57.904528 90.527515 58.821153 89.874686 59.937624 C 89.221857 61.054095 88.48376 62.146584 87.660396 63.209763 C 86.850355 64.259619 85.979028 65.157592 85.046416 65.903682 C 84.12979 66.633785 83.178525 66.998836 82.195284 66.998836 C 80.399338 66.998836 79.229575 65.392077 78.683331 62.17323 C 78.523454 61.25394 78.411541 60.017562 78.344925 58.461431 C 78.291633 56.9053 78.264987 55.557008 78.264987 54.411226 C 77.891942 54.69101 77.433629 55.322522 76.887385 56.308427 C 76.343804 57.278345 75.79756 58.376163 75.251315 59.599219 C 74.707735 60.822274 74.201459 62.013354 73.735153 63.169794 C 73.271511 64.312911 72.903795 65.184238 72.639999 65.783775 C 71.98717 67.473137 71.454248 69.154504 71.043898 70.830543 C 70.630884 72.519905 70.1779 74.129328 69.687613 75.658814 C 69.421152 76.53547 69.106728 77.095038 68.74967 77.332188 C 68.403271 77.585326 67.843704 77.713227 67.073632 77.713227 C 66.474095 77.713227 65.983807 77.193628 65.597439 76.157095 C 65.224393 75.117898 64.912634 73.822898 64.659496 72.266767 C 64.419682 70.710636 64.246482 69.101212 64.139898 67.438497 C 64.033313 65.789104 63.966698 64.299588 63.940052 62.969948 C 63.900083 61.626986 63.881431 60.71036 63.881431 60.217408 Z M 93.050899 52.218253 C 94.087432 51.672009 95.230549 50.920589 96.48025 49.963995 C 97.743275 49.0074 98.430744 47.874942 98.534663 46.571948 C 97.831207 46.678532 97.079787 47.056907 96.280405 47.709736 C 95.49701 48.362565 94.817535 49.100661 94.247308 49.924025 C 93.674418 50.734066 93.274726 51.498809 93.050899 52.218253 Z M 89.379069 54.174076 C 89.379069 52.815126 89.824058 51.346926 90.716702 49.764149 C 91.620005 48.181372 92.736475 46.83308 94.066115 45.713944 C 95.411742 44.597473 96.733388 44.037905 98.036382 44.037905 C 99.832328 44.037905 100.77027 44.72271 100.850208 46.094983 C 100.943469 47.451269 100.365249 48.919468 99.115548 50.502245 C 98.449396 51.208367 97.466155 52.026402 96.163162 52.95635 C 94.857504 53.872975 93.581156 54.38458 92.331455 54.491164 C 92.331455 55.370485 92.358101 56.148551 92.411393 56.825361 C 92.464685 57.504836 92.84306 58.19497 93.549181 58.901091 C 94.252638 59.617871 95.150611 59.977593 96.240436 59.977593 C 97.666001 59.977593 99.1342 59.532603 100.650362 58.642624 C 102.179848 57.736657 103.349611 56.985238 104.162316 56.388366 C 104.492728 56.108582 104.753859 55.887419 104.940382 55.730207 C 105.137563 55.557008 105.372049 55.362491 105.638509 55.149323 C 106.781626 54.285989 107.498406 53.646483 107.791513 53.236134 C 108.097943 52.823119 108.35641 52.551329 108.569579 52.418099 C 108.79607 52.284869 109.315669 52.218253 110.12571 52.218253 C 110.245617 52.815126 110.29358 53.222811 110.266934 53.435979 C 110.240288 53.646483 110.032449 53.97423 109.646081 54.411226 C 108.66284 55.397131 107.418468 56.513602 105.915629 57.763303 C 104.426113 59.013005 102.824683 60.105494 101.108675 61.035443 C 99.392667 61.965391 97.692647 62.431697 96.003285 62.431697 C 95.123965 62.431697 94.292607 62.285144 93.509212 61.992037 C 92.723152 61.688272 91.971733 61.174002 91.254953 60.457223 C 90.285036 59.487305 89.725468 58.482748 89.578914 57.44355 C 89.445684 56.407018 89.379069 55.317193 89.379069 54.174076 Z M 109.323663 62.75145 C 108.28713 62.75145 107.615649 62.125267 107.309219 60.875566 C 107.016112 59.625865 106.976143 58.06174 107.189312 56.18852 C 107.415803 54.299312 107.81283 52.418099 108.385721 50.542215 C 108.958612 48.653007 109.595453 47.083553 110.301574 45.833852 C 111.005031 44.58415 111.65786 43.957967 112.254732 43.957967 C 113.187345 43.957967 113.624341 44.384305 113.571049 45.236979 C 113.520421 46.073666 113.245967 47.190137 112.755679 48.586392 C 112.262726 49.969324 111.769773 51.49348 111.279485 53.156195 C 110.786533 54.818911 110.541389 56.433664 110.541389 58.003118 L 114.469022 52.039725 C 114.628898 51.719972 114.983291 51.155075 115.526871 50.342369 C 116.073116 49.519005 116.683311 48.754262 117.362787 48.048141 C 118.039597 47.331361 118.705749 46.971639 119.358578 46.971639 C 120.022066 46.971639 120.541664 47.4113 120.91471 48.287956 L 121.412991 52.855095 C 121.412991 53.348047 121.439637 54.11279 121.49293 55.149323 C 121.546222 56.18852 121.666129 57.238376 121.849987 58.301554 C 122.049833 59.367398 122.364257 60.276029 122.787929 61.035443 C 123.22759 61.792191 123.832456 62.17323 124.605192 62.17323 C 125.415233 62.17323 126.265243 61.688272 127.157887 60.71569 C 128.061189 59.732449 128.932516 58.602655 129.771868 57.323643 C 130.621878 56.033973 131.386621 54.904179 132.066096 53.934261 C 132.756229 52.948356 133.289151 52.458068 133.659532 52.458068 C 134.48556 52.458068 134.871929 52.769827 134.818636 53.39601 C 134.765344 54.019529 134.490889 54.744302 134.000602 55.570331 C 133.507649 56.380372 133.001373 57.139785 132.484439 57.843242 C 131.964841 58.549363 131.653082 58.986359 131.546497 59.159558 C 131.160129 59.652511 130.64053 60.276029 129.990366 61.035443 C 129.337537 61.792191 128.652732 62.503642 127.935953 63.169794 C 127.229832 63.822623 126.553021 64.227643 125.900192 64.38752 C 125.356612 64.547397 124.837013 64.627335 124.344061 64.627335 C 123.094359 64.627335 122.103125 64.166358 121.373022 63.249732 C 120.640255 62.319784 120.083352 61.307233 119.696984 60.217408 C 119.150739 58.581338 118.852303 57.126462 118.79901 55.84745 C 118.745718 54.571103 118.745718 53.481278 118.79901 52.577975 C 118.852303 51.672009 118.740389 50.981875 118.460605 50.502245 C 117.807776 50.928583 117.117643 51.79991 116.384875 53.116226 C 115.654773 54.41922 114.89003 55.820804 114.090647 57.323643 C 113.307252 58.813159 112.515864 60.092171 111.716481 61.15535 C 110.933086 62.218529 110.133704 62.75145 109.323663 62.75145 Z M 109.323663 62.75145 " stroke="#122620" stroke-width="6.128468" stroke-opacity="1" stroke-miterlimit="4"/><g fill="#fffef9" fill-opacity="1"><g transform="translate(112.799388, 189.376706)"><g><path d="M 11.375 -2.75 C 12.019531 -2.914062 12.359375 -3.054688 12.390625 -3.171875 C 12.429688 -3.296875 12.734375 -3.554688 13.296875 -3.953125 C 13.691406 -4.273438 13.988281 -4.535156 14.1875 -4.734375 C 14.394531 -4.929688 14.65625 -5.148438 14.96875 -5.390625 L 25.75 -12.8125 C 26.632812 -13.375 27.632812 -13.929688 28.75 -14.484375 C 29.863281 -15.046875 31.019531 -15.328125 32.21875 -15.328125 C 33.175781 -15.328125 34.054688 -15.085938 34.859375 -14.609375 C 35.890625 -13.972656 36.546875 -13.054688 36.828125 -11.859375 C 37.109375 -10.660156 37.226562 -9.484375 37.1875 -8.328125 C 37.144531 -7.171875 37.125 -6.234375 37.125 -5.515625 C 38.726562 -6.710938 40.382812 -8.046875 42.09375 -9.515625 C 43.8125 -10.992188 45.3125 -12.453125 46.59375 -13.890625 L 53.546875 -20.25 C 54.265625 -20.726562 54.742188 -20.96875 54.984375 -20.96875 C 55.222656 -20.96875 55.703125 -20.726562 56.421875 -20.25 C 56.335938 -19.445312 56.234375 -18.960938 56.109375 -18.796875 C 55.992188 -18.640625 55.695312 -18.285156 55.21875 -17.734375 C 54.175781 -16.453125 52.796875 -15.03125 51.078125 -13.46875 C 49.367188 -11.914062 47.632812 -10.378906 45.875 -8.859375 C 44.113281 -7.347656 42.597656 -5.992188 41.328125 -4.796875 C 40.921875 -4.390625 40.640625 -4.125 40.484375 -4 C 40.328125 -3.882812 40.046875 -3.671875 39.640625 -3.359375 C 38.128906 -2.078125 37.09375 -1.132812 36.53125 -0.53125 C 35.96875 0.0625 35.609375 0.65625 35.453125 1.25 C 35.296875 1.851562 35.054688 2.773438 34.734375 4.015625 C 34.410156 5.253906 33.691406 7.148438 32.578125 9.703125 C 31.140625 12.972656 29.625 15.984375 28.03125 18.734375 C 26.4375 21.492188 24.71875 24.273438 22.875 27.078125 C 22.5625 27.472656 22.300781 27.8125 22.09375 28.09375 C 21.894531 28.375 21.597656 28.710938 21.203125 29.109375 L 17.015625 34.734375 C 16.128906 35.691406 14.867188 37.03125 13.234375 38.75 C 11.597656 40.46875 9.820312 42.023438 7.90625 43.421875 C 5.988281 44.816406 4.191406 45.515625 2.515625 45.515625 C 2.191406 45.515625 1.910156 45.492188 1.671875 45.453125 C 1.429688 45.410156 1.191406 45.351562 0.953125 45.28125 C -0.242188 44.800781 -0.976562 43.960938 -1.25 42.765625 C -1.53125 41.566406 -1.53125 40.285156 -1.25 38.921875 C -0.976562 37.566406 -0.640625 36.367188 -0.234375 35.328125 C 0.878906 33.015625 2.015625 30.878906 3.171875 28.921875 C 4.328125 26.972656 5.742188 25 7.421875 23 C 7.898438 22.28125 8.359375 21.617188 8.796875 21.015625 C 9.242188 20.421875 9.742188 19.765625 10.296875 19.046875 C 10.703125 18.804688 11.023438 18.566406 11.265625 18.328125 C 11.503906 18.085938 11.78125 17.769531 12.09375 17.375 C 13.613281 15.53125 15.53125 13.550781 17.84375 11.4375 C 20.164062 9.320312 22.164062 7.382812 23.84375 5.625 L 31.140625 -0.484375 C 31.773438 -1.203125 32.234375 -2.257812 32.515625 -3.65625 C 32.796875 -5.050781 32.957031 -6.46875 33 -7.90625 C 33.039062 -9.34375 32.898438 -10.421875 32.578125 -11.140625 C 31.054688 -11.140625 29.617188 -10.757812 28.265625 -10 C 26.910156 -9.238281 25.753906 -8.539062 24.796875 -7.90625 C 22.960938 -6.789062 21.445312 -5.8125 20.25 -4.96875 C 19.050781 -4.132812 17.890625 -3.273438 16.765625 -2.390625 C 15.648438 -1.515625 14.253906 -0.398438 12.578125 0.953125 C 12.015625 1.359375 11.132812 2.039062 9.9375 3 C 8.738281 3.957031 7.660156 4.4375 6.703125 4.4375 C 6.304688 4.4375 5.988281 4.316406 5.75 4.078125 C 5.113281 3.429688 5.070312 2.390625 5.625 0.953125 C 6.1875 -0.484375 6.925781 -1.921875 7.84375 -3.359375 C 8.757812 -4.796875 9.378906 -5.789062 9.703125 -6.34375 L 18.09375 -20.25 C 18.882812 -21.6875 19.757812 -23.363281 20.71875 -25.28125 C 21.675781 -27.195312 22.515625 -29.109375 23.234375 -31.015625 C 23.953125 -32.929688 24.3125 -34.609375 24.3125 -36.046875 C 23.28125 -35.890625 22.125 -35.351562 20.84375 -34.4375 C 19.5625 -33.519531 18.601562 -32.703125 17.96875 -31.984375 C 17.40625 -31.503906 16.925781 -31.125 16.53125 -30.84375 C 16.132812 -30.5625 15.65625 -30.144531 15.09375 -29.59375 C 14.613281 -29.03125 14.210938 -28.546875 13.890625 -28.140625 C 13.578125 -27.742188 13.140625 -27.269531 12.578125 -26.71875 C 10.265625 -24.394531 8.726562 -22.515625 7.96875 -21.078125 C 7.207031 -19.640625 6.742188 -18.5625 6.578125 -17.84375 C 6.421875 -17.125 6.125 -16.644531 5.6875 -16.40625 C 5.25 -16.164062 4.191406 -16.046875 2.515625 -16.046875 C 1.796875 -17.242188 1.472656 -18.242188 1.546875 -19.046875 C 1.628906 -19.847656 2.109375 -20.765625 2.984375 -21.796875 C 3.867188 -22.835938 5.070312 -24.238281 6.59375 -26 C 7.144531 -26.632812 8.117188 -27.648438 9.515625 -29.046875 C 10.921875 -30.441406 12.539062 -31.914062 14.375 -33.46875 C 16.207031 -35.03125 18.039062 -36.367188 19.875 -37.484375 C 21.71875 -38.609375 23.28125 -39.171875 24.5625 -39.171875 C 25.914062 -39.171875 26.789062 -38.53125 27.1875 -37.25 C 27.507812 -36.050781 27.453125 -34.59375 27.015625 -32.875 C 26.578125 -31.15625 25.9375 -29.359375 25.09375 -27.484375 C 24.257812 -25.609375 23.421875 -23.910156 22.578125 -22.390625 C 21.742188 -20.878906 21.085938 -19.6875 20.609375 -18.8125 C 20.367188 -18.332031 19.769531 -17.3125 18.8125 -15.75 C 17.851562 -14.195312 16.8125 -12.476562 15.6875 -10.59375 C 14.570312 -8.71875 13.59375 -7.019531 12.75 -5.5 C 11.914062 -3.988281 11.457031 -3.070312 11.375 -2.75 Z M 1.796875 41.328125 C 1.796875 41.960938 2.078125 42.28125 2.640625 42.28125 C 3.671875 42.28125 4.984375 41.617188 6.578125 40.296875 C 8.179688 38.984375 9.820312 37.40625 11.5 35.5625 C 13.175781 33.726562 14.671875 31.972656 15.984375 30.296875 C 17.304688 28.628906 18.207031 27.4375 18.6875 26.71875 C 19.40625 25.59375 20.34375 24.09375 21.5 22.21875 C 22.65625 20.34375 23.8125 18.347656 24.96875 16.234375 C 26.132812 14.117188 27.195312 12.0625 28.15625 10.0625 C 29.113281 8.0625 29.75 6.382812 30.0625 5.03125 C 29.425781 5.507812 28.546875 6.207031 27.421875 7.125 C 26.304688 8.039062 25.207031 8.976562 24.125 9.9375 C 23.050781 10.894531 22.15625 11.695312 21.4375 12.34375 C 20 13.539062 18.679688 14.835938 17.484375 16.234375 C 16.285156 17.628906 15.007812 19.046875 13.65625 20.484375 L 10.0625 24.921875 C 9.019531 26.273438 7.859375 27.890625 6.578125 29.765625 C 5.304688 31.640625 4.191406 33.570312 3.234375 35.5625 C 2.273438 37.5625 1.796875 39.484375 1.796875 41.328125 Z M 1.796875 41.328125 "/></g></g></g><g fill="#fffef9" fill-opacity="1"><g transform="translate(163.703711, 189.376706)"><g><path d="M -0.71875 -9.9375 L 0 -23.484375 C 0.0820312 -24.359375 0.160156 -25.414062 0.234375 -26.65625 C 0.316406 -27.894531 0.398438 -28.953125 0.484375 -29.828125 C 0.640625 -33.816406 1.132812 -37.765625 1.96875 -41.671875 C 2.8125 -45.585938 3.710938 -49.460938 4.671875 -53.296875 C 5.234375 -54.898438 5.671875 -55.957031 5.984375 -56.46875 C 6.304688 -56.988281 6.75 -57.25 7.3125 -57.25 C 7.550781 -57.25 7.828125 -57.226562 8.140625 -57.1875 C 8.460938 -57.15625 8.820312 -57.097656 9.21875 -57.015625 C 9.625 -55.179688 9.546875 -53.003906 8.984375 -50.484375 C 8.421875 -47.972656 7.984375 -45.675781 7.671875 -43.59375 C 6.785156 -38.082031 6.0625 -32.015625 5.5 -25.390625 C 4.945312 -18.765625 4.671875 -12.457031 4.671875 -6.46875 L 5.03125 6.953125 L 5.984375 4.671875 C 7.109375 1.472656 8.046875 -1.21875 8.796875 -3.40625 C 9.554688 -5.601562 10.4375 -7.78125 11.4375 -9.9375 C 12.4375 -12.09375 13.773438 -14.726562 15.453125 -17.84375 C 16.328125 -19.445312 17.179688 -20.804688 18.015625 -21.921875 C 18.859375 -23.035156 20.160156 -23.59375 21.921875 -23.59375 C 22.796875 -23.59375 23.410156 -22.953125 23.765625 -21.671875 C 24.128906 -20.398438 24.351562 -19.003906 24.4375 -17.484375 C 24.519531 -15.972656 24.5625 -14.859375 24.5625 -14.140625 C 24.5625 -11.898438 24.617188 -10 24.734375 -8.4375 C 24.859375 -6.882812 25.316406 -5.347656 26.109375 -3.828125 C 27.953125 -4.234375 29.507812 -5.410156 30.78125 -7.359375 C 32.0625 -9.316406 33.21875 -11.015625 34.25 -12.453125 C 34.8125 -13.335938 35.332031 -14.21875 35.8125 -15.09375 C 36.289062 -15.96875 36.769531 -16.882812 37.25 -17.84375 C 37.96875 -19.125 38.546875 -20.003906 38.984375 -20.484375 C 39.421875 -20.960938 39.878906 -21.203125 40.359375 -21.203125 C 40.597656 -21.203125 41.039062 -21.125 41.6875 -20.96875 C 42.082031 -19.53125 42 -18.367188 41.4375 -17.484375 C 40.882812 -16.609375 40.285156 -15.570312 39.640625 -14.375 C 39.085938 -13.332031 38.332031 -11.992188 37.375 -10.359375 C 36.414062 -8.722656 35.335938 -7.125 34.140625 -5.5625 C 32.941406 -4.007812 31.660156 -2.691406 30.296875 -1.609375 C 28.941406 -0.535156 27.546875 0 26.109375 0 C 23.472656 0 21.757812 -2.351562 20.96875 -7.0625 C 20.726562 -8.425781 20.566406 -10.242188 20.484375 -12.515625 C 20.398438 -14.796875 20.359375 -16.773438 20.359375 -18.453125 C 19.804688 -18.046875 19.128906 -17.125 18.328125 -15.6875 C 17.523438 -14.25 16.722656 -12.628906 15.921875 -10.828125 C 15.128906 -9.035156 14.394531 -7.300781 13.71875 -5.625 C 13.039062 -3.945312 12.5 -2.671875 12.09375 -1.796875 C 11.132812 0.679688 10.351562 3.15625 9.75 5.625 C 9.15625 8.101562 8.5 10.460938 7.78125 12.703125 C 7.382812 13.972656 6.925781 14.785156 6.40625 15.140625 C 5.882812 15.503906 5.066406 15.6875 3.953125 15.6875 C 3.078125 15.6875 2.359375 14.925781 1.796875 13.40625 C 1.234375 11.894531 0.769531 10 0.40625 7.71875 C 0.0507812 5.445312 -0.203125 3.09375 -0.359375 0.65625 C -0.515625 -1.78125 -0.613281 -3.972656 -0.65625 -5.921875 C -0.695312 -7.878906 -0.71875 -9.21875 -0.71875 -9.9375 Z M -0.71875 -9.9375 "/></g></g></g><g fill="#fffef9" fill-opacity="1"><g transform="translate(200.23505, 189.376706)"><g><path d="M 5.515625 -21.6875 C 7.023438 -22.476562 8.695312 -23.570312 10.53125 -24.96875 C 12.375 -26.375 13.375 -28.035156 13.53125 -29.953125 C 12.5 -29.785156 11.398438 -29.222656 10.234375 -28.265625 C 9.078125 -27.304688 8.078125 -26.226562 7.234375 -25.03125 C 6.398438 -23.832031 5.828125 -22.71875 5.515625 -21.6875 Z M 0.125 -18.8125 C 0.125 -20.800781 0.78125 -22.953125 2.09375 -25.265625 C 3.414062 -27.585938 5.050781 -29.566406 7 -31.203125 C 8.957031 -32.835938 10.894531 -33.65625 12.8125 -33.65625 C 15.445312 -33.65625 16.820312 -32.65625 16.9375 -30.65625 C 17.0625 -28.664062 16.207031 -26.515625 14.375 -24.203125 C 13.414062 -23.160156 11.976562 -21.957031 10.0625 -20.59375 C 8.144531 -19.238281 6.269531 -18.484375 4.4375 -18.328125 C 4.4375 -17.046875 4.472656 -15.90625 4.546875 -14.90625 C 4.628906 -13.914062 5.191406 -12.898438 6.234375 -11.859375 C 7.265625 -10.816406 8.582031 -10.296875 10.1875 -10.296875 C 12.257812 -10.296875 14.410156 -10.953125 16.640625 -12.265625 C 18.878906 -13.585938 20.597656 -14.691406 21.796875 -15.578125 C 22.273438 -15.972656 22.65625 -16.289062 22.9375 -16.53125 C 23.21875 -16.769531 23.554688 -17.050781 23.953125 -17.375 C 25.628906 -18.644531 26.6875 -19.578125 27.125 -20.171875 C 27.570312 -20.773438 27.953125 -21.175781 28.265625 -21.375 C 28.585938 -21.582031 29.347656 -21.6875 30.546875 -21.6875 C 30.703125 -20.800781 30.757812 -20.195312 30.71875 -19.875 C 30.675781 -19.5625 30.378906 -19.085938 29.828125 -18.453125 C 28.390625 -17.015625 26.570312 -15.375 24.375 -13.53125 C 22.175781 -11.695312 19.816406 -10.097656 17.296875 -8.734375 C 14.785156 -7.378906 12.296875 -6.703125 9.828125 -6.703125 C 8.546875 -6.703125 7.328125 -6.921875 6.171875 -7.359375 C 5.015625 -7.804688 3.914062 -8.546875 2.875 -9.578125 C 1.4375 -11.015625 0.617188 -12.492188 0.421875 -14.015625 C 0.222656 -15.535156 0.125 -17.132812 0.125 -18.8125 Z M 0.125 -18.8125 "/></g></g></g><g fill="#fffef9" fill-opacity="1"><g transform="translate(226.226203, 189.376706)"><g><path d="M 3.359375 -6.234375 C 1.835938 -6.234375 0.859375 -7.148438 0.421875 -8.984375 C -0.015625 -10.816406 -0.078125 -13.109375 0.234375 -15.859375 C 0.554688 -18.617188 1.132812 -21.375 1.96875 -24.125 C 2.8125 -26.882812 3.75 -29.179688 4.78125 -31.015625 C 5.820312 -32.859375 6.785156 -33.78125 7.671875 -33.78125 C 9.023438 -33.78125 9.660156 -33.160156 9.578125 -31.921875 C 9.503906 -30.679688 9.109375 -29.039062 8.390625 -27 C 7.671875 -24.96875 6.953125 -22.734375 6.234375 -20.296875 C 5.515625 -17.867188 5.15625 -15.492188 5.15625 -13.171875 L 10.90625 -21.921875 C 11.144531 -22.398438 11.660156 -23.238281 12.453125 -24.4375 C 13.253906 -25.632812 14.15625 -26.75 15.15625 -27.78125 C 16.15625 -28.820312 17.132812 -29.34375 18.09375 -29.34375 C 19.050781 -29.34375 19.804688 -28.707031 20.359375 -27.4375 L 21.078125 -20.71875 C 21.078125 -20 21.117188 -18.878906 21.203125 -17.359375 C 21.285156 -15.847656 21.460938 -14.3125 21.734375 -12.75 C 22.015625 -11.195312 22.472656 -9.859375 23.109375 -8.734375 C 23.753906 -7.617188 24.632812 -7.0625 25.75 -7.0625 C 26.945312 -7.0625 28.203125 -7.78125 29.515625 -9.21875 C 30.835938 -10.65625 32.117188 -12.3125 33.359375 -14.1875 C 34.597656 -16.070312 35.710938 -17.734375 36.703125 -19.171875 C 37.703125 -20.609375 38.484375 -21.328125 39.046875 -21.328125 C 40.242188 -21.328125 40.800781 -20.863281 40.71875 -19.9375 C 40.644531 -19.019531 40.25 -17.960938 39.53125 -16.765625 C 38.8125 -15.566406 38.070312 -14.445312 37.3125 -13.40625 C 36.550781 -12.375 36.09375 -11.738281 35.9375 -11.5 C 35.375 -10.78125 34.613281 -9.859375 33.65625 -8.734375 C 32.695312 -7.617188 31.695312 -6.582031 30.65625 -5.625 C 29.625 -4.664062 28.628906 -4.066406 27.671875 -3.828125 C 26.867188 -3.585938 26.109375 -3.46875 25.390625 -3.46875 C 23.554688 -3.46875 22.097656 -4.144531 21.015625 -5.5 C 19.941406 -6.863281 19.125 -8.34375 18.5625 -9.9375 C 17.769531 -12.332031 17.332031 -14.46875 17.25 -16.34375 C 17.164062 -18.226562 17.164062 -19.828125 17.25 -21.140625 C 17.332031 -22.460938 17.171875 -23.484375 16.765625 -24.203125 C 15.804688 -23.554688 14.785156 -22.273438 13.703125 -20.359375 C 12.628906 -18.441406 11.515625 -16.382812 10.359375 -14.1875 C 9.203125 -12 8.046875 -10.125 6.890625 -8.5625 C 5.734375 -7.007812 4.554688 -6.234375 3.359375 -6.234375 Z M 3.359375 -6.234375 "/></g></g></g><path fill="#122620" d="M 266.597656 246.253906 C 265.414062 247.792969 264.1875 249.300781 262.921875 250.769531 C 261.652344 252.238281 260.34375 253.671875 258.992188 255.066406 C 257.640625 256.460938 256.253906 257.816406 254.824219 259.132812 C 253.398438 260.449219 251.933594 261.722656 250.433594 262.953125 C 248.933594 264.1875 247.398438 265.375 245.828125 266.519531 C 244.261719 267.664062 242.660156 268.761719 241.03125 269.816406 C 239.398438 270.871094 237.738281 271.875 236.050781 272.832031 C 234.363281 273.792969 232.648438 274.703125 230.90625 275.5625 C 229.167969 276.421875 227.402344 277.234375 225.617188 277.992188 C 223.832031 278.753906 222.023438 279.460938 220.195312 280.117188 C 218.371094 280.773438 216.523438 281.378906 214.664062 281.929688 C 212.800781 282.480469 210.925781 282.976562 209.035156 283.421875 C 207.144531 283.867188 205.246094 284.257812 203.332031 284.59375 C 201.421875 284.925781 199.5 285.207031 197.570312 285.433594 C 195.644531 285.660156 193.710938 285.832031 191.773438 285.945312 C 189.832031 286.0625 187.894531 286.121094 185.953125 286.128906 C 184.011719 286.132812 182.070312 286.082031 180.132812 285.976562 C 178.191406 285.871094 176.257812 285.707031 174.328125 285.492188 C 172.398438 285.273438 170.480469 285.003906 168.566406 284.675781 C 166.652344 284.351562 164.746094 283.972656 162.855469 283.535156 C 160.964844 283.101562 159.085938 282.613281 157.21875 282.070312 C 155.355469 281.527344 153.507812 280.933594 151.679688 280.285156 C 149.847656 279.636719 148.039062 278.9375 146.246094 278.1875 C 144.457031 277.4375 142.6875 276.636719 140.945312 275.785156 C 139.199219 274.933594 137.480469 274.03125 135.789062 273.082031 C 134.09375 272.128906 132.429688 271.132812 130.792969 270.085938 C 129.15625 269.042969 127.550781 267.953125 125.976562 266.816406 C 124.40625 265.679688 122.863281 264.496094 121.359375 263.273438 C 119.851562 262.046875 118.382812 260.78125 116.945312 259.472656 C 115.511719 258.164062 114.117188 256.816406 112.757812 255.425781 C 111.402344 254.039062 110.085938 252.613281 108.808594 251.148438 C 107.535156 249.683594 106.300781 248.1875 105.113281 246.652344 L 123.074219 232.714844 C 124 233.90625 124.960938 235.070312 125.949219 236.207031 C 126.941406 237.347656 127.964844 238.453125 129.019531 239.53125 C 130.074219 240.613281 131.160156 241.660156 132.273438 242.675781 C 133.386719 243.695312 134.53125 244.679688 135.699219 245.628906 C 136.871094 246.582031 138.070312 247.5 139.292969 248.382812 C 140.515625 249.265625 141.761719 250.113281 143.035156 250.925781 C 144.304688 251.738281 145.597656 252.511719 146.914062 253.25 C 148.230469 253.988281 149.566406 254.691406 150.921875 255.351562 C 152.277344 256.015625 153.652344 256.636719 155.042969 257.21875 C 156.433594 257.804688 157.839844 258.347656 159.261719 258.851562 C 160.683594 259.355469 162.121094 259.816406 163.570312 260.238281 C 165.019531 260.660156 166.476562 261.039062 167.949219 261.375 C 169.417969 261.714844 170.898438 262.011719 172.382812 262.261719 C 173.871094 262.515625 175.363281 262.726562 176.863281 262.894531 C 178.363281 263.0625 179.867188 263.1875 181.375 263.273438 C 182.878906 263.355469 184.386719 263.394531 185.894531 263.390625 C 187.40625 263.386719 188.914062 263.339844 190.417969 263.25 C 191.925781 263.160156 193.425781 263.027344 194.925781 262.851562 C 196.421875 262.675781 197.914062 262.457031 199.402344 262.195312 C 200.886719 261.9375 202.367188 261.632812 203.835938 261.289062 C 205.304688 260.941406 206.761719 260.554688 208.207031 260.128906 C 209.652344 259.699219 211.085938 259.230469 212.507812 258.71875 C 213.925781 258.210938 215.332031 257.660156 216.71875 257.070312 C 218.109375 256.476562 219.476562 255.847656 220.832031 255.179688 C 222.183594 254.511719 223.515625 253.804688 224.828125 253.058594 C 226.140625 252.316406 227.429688 251.535156 228.695312 250.714844 C 229.964844 249.894531 231.207031 249.042969 232.425781 248.152344 C 233.644531 247.265625 234.835938 246.339844 236.003906 245.382812 C 237.167969 244.425781 238.308594 243.433594 239.417969 242.414062 C 240.527344 241.390625 241.605469 240.335938 242.65625 239.253906 C 243.703125 238.167969 244.722656 237.054688 245.707031 235.914062 C 246.691406 234.769531 247.644531 233.601562 248.5625 232.40625 Z M 266.597656 246.253906 " fill-opacity="1" fill-rule="nonzero"/><g fill="#fffef9" fill-opacity="1"><g transform="translate(112.591533, 246.39527)"><g><path d="M 13.734375 0.453125 L 3.34375 1.09375 L 8 6 L 6.78125 7.15625 L 0.390625 0.421875 L 1.359375 -0.484375 L 11.78125 -1.140625 L 7.296875 -5.859375 L 8.515625 -7 L 14.71875 -0.46875 Z M 13.734375 0.453125 "/></g></g></g><g fill="#fffef9" fill-opacity="1"><g transform="translate(130.637589, 262.917245)"><g><path d="M 9.359375 5.703125 L 7.796875 4.75 L 10.15625 0.875 L 5.171875 -2.15625 L 2.8125 1.71875 L 1.234375 0.75 L 6.953125 -8.640625 L 8.53125 -7.671875 L 6.046875 -3.59375 L 11.03125 -0.5625 L 13.515625 -4.640625 L 15.078125 -3.6875 Z M 9.359375 5.703125 "/></g></g></g><g fill="#fffef9" fill-opacity="1"><g transform="translate(154.153166, 274.923802)"><g><path d="M 11.53125 -6.359375 L 5.78125 -8.03125 L 4.953125 -5.1875 L 10.109375 -3.6875 L 9.640625 -2.078125 L 4.484375 -3.578125 L 3.640625 -0.6875 L 9.578125 1.046875 L 9.109375 2.65625 L 1.375 0.40625 L 4.453125 -10.15625 L 12 -7.96875 Z M 11.53125 -6.359375 "/></g></g></g><g fill="#fffef9" fill-opacity="1"><g transform="translate(177.910824, 280.064805)"><g><path d="M 10.96875 0.21875 L 9.15625 0.171875 L 3.453125 -7.828125 L 3.296875 0.0625 L 1.4375 0.03125 L 1.65625 -10.96875 L 3.484375 -10.9375 L 9.21875 -2.921875 L 9.375 -10.828125 L 11.1875 -10.78125 Z M 10.96875 0.21875 "/></g></g></g><g fill="#fffef9" fill-opacity="1"><g transform="translate(204.368744, 278.641095)"><g><path d="M 10.609375 -2.78125 L 8.828125 -2.3125 L 7.671875 -6.71875 L 2.03125 -5.234375 L 3.1875 -0.828125 L 1.390625 -0.359375 L -1.390625 -11 L 0.40625 -11.46875 L 1.609375 -6.84375 L 7.25 -8.328125 L 6.046875 -12.953125 L 7.828125 -13.421875 Z M 10.609375 -2.78125 "/></g></g></g><g fill="#fffef9" fill-opacity="1"><g transform="translate(229.389533, 270.065588)"><g><path d="M 6.140625 -6.4375 L 1.34375 -3.65625 L 1.6875 -0.984375 L 0.015625 -0.015625 L -1.3125 -11.953125 L 0.3125 -12.90625 L 10 -5.828125 L 8.296875 -4.828125 Z M 4.6875 -7.5 L 0.453125 -10.703125 L 1.109375 -5.421875 Z M 4.6875 -7.5 "/></g></g></g><g fill="#fffef9" fill-opacity="1"><g transform="translate(250.565765, 255.612118)"><g><path d="M -5.234375 -8.171875 C -5.210938 -9.722656 -4.628906 -11.085938 -3.484375 -12.265625 C -2.335938 -13.441406 -0.992188 -14.0625 0.546875 -14.125 C 2.085938 -14.1875 3.421875 -13.664062 4.546875 -12.5625 C 5.679688 -11.46875 6.242188 -10.144531 6.234375 -8.59375 C 6.222656 -7.050781 5.644531 -5.691406 4.5 -4.515625 C 3.351562 -3.335938 2.003906 -2.71875 0.453125 -2.65625 C -1.097656 -2.59375 -2.4375 -3.109375 -3.5625 -4.203125 C -4.695312 -5.304688 -5.253906 -6.628906 -5.234375 -8.171875 Z M -2.28125 -11.109375 C -3.03125 -10.328125 -3.40625 -9.394531 -3.40625 -8.3125 C -3.414062 -7.238281 -3.03125 -6.320312 -2.25 -5.5625 C -1.46875 -4.800781 -0.535156 -4.4375 0.546875 -4.46875 C 1.640625 -4.507812 2.5625 -4.914062 3.3125 -5.6875 C 4.0625 -6.457031 4.429688 -7.378906 4.421875 -8.453125 C 4.410156 -9.523438 4.015625 -10.441406 3.234375 -11.203125 C 2.453125 -11.960938 1.523438 -12.328125 0.453125 -12.296875 C -0.609375 -12.273438 -1.519531 -11.878906 -2.28125 -11.109375 Z M -2.28125 -11.109375 "/></g></g></g></svg>